<?xml version="1.0" encoding="utf-8"?>
<svg viewBox="0 0 1080 1080" xmlns="http://www.w3.org/2000/svg">
  <rect x="0" y="0" width="100%" height="100%" fill="transparent"/>
  <g transform="matrix(1, 0, 0, 1, 540, 540)" id="093694d9-b985-49d5-ba3e-5fd6f4e85b3d"/>
  <g transform="matrix(1, 0, 0, 1, 540, 540)" id="9894a42d-c37a-44ef-a9b1-6b6f5c41ccfa"/>
  <g transform="matrix(1.980720043182373, 0, 0, 1.980720043182373, 540.819580078125, 550.9667358398438)" style="">
    <g style="" vector-effect="non-scaling-stroke">
      <g transform="matrix(1 0 0 1 0 0)">
        <path style="stroke: none; stroke-width: 1; stroke-dasharray: none; stroke-linecap: butt; stroke-dashoffset: 0; stroke-linejoin: miter; stroke-miterlimit: 4; fill: rgb(164,180,157); fill-rule: nonzero; opacity: 1;" vector-effect="non-scaling-stroke" transform=" translate(-11.79, -256.12)" d="M 0 0 C 0.85360107 -0.00974854 1.70720215 -0.01949707 2.58666992 -0.02954102 C 21.40641333 -0.2001952 39.47780474 0.00019854 57.91015625 4.23828125 C 58.74369629 4.4202002 59.57723633 4.60211914 60.43603516 4.78955078 C 79.18299904 8.94934705 97.04559221 16.12108684 113.91015625 25.23828125 C 114.50876465 25.55764648 115.10737305 25.87701172 115.72412109 26.20605469 C 130.07236584 33.91007272 142.71751239 43.49870683 154.91015625 54.23828125 C 155.41208496 54.6770459 155.91401367 55.11581055 156.43115234 55.56787109 C 162.38992741 60.79277802 167.85038771 66.14658623 172.91015625 72.23828125 C 173.62171875 73.03878906 174.33328125 73.83929688 175.06640625 74.6640625 C 205.4734731 109.56308241 224.60890834 156.82710591 225.91015625 203.23828125 C 225.9359375 203.94855469 225.96171875 204.65882813 225.98828125 205.390625 C 227.2197714 242.88950016 218.8316604 280.24316594 200.91015625 313.23828125 C 200.38252686 314.23118164 200.38252686 314.23118164 199.84423828 315.24414062 C 188.48503757 336.58412219 173.22750079 356.540082 155.81617737 373.33131409 C 154.07728579 375.07106876 152.48852688 376.85624536 150.90209961 378.73413086 C 145.98476195 384.3918804 140.6545239 389.63814087 135.3515625 394.9296875 C 134.23715407 396.04477136 133.12289396 397.16000347 132.0087738 398.27537537 C 129.68479604 400.60081887 127.35904161 402.92446636 125.03198242 405.24682617 C 122.06895174 408.20416028 119.11043455 411.16596253 116.15324497 414.12913609 C 113.85662993 416.42938723 111.55761059 418.72722356 109.25788689 421.02436638 C 108.16685819 422.11473422 107.07655448 423.20582805 105.98703194 424.29770088 C 100.66108062 429.63262144 95.31437321 434.88045492 89.58409119 439.78672791 C 87.29403967 441.77254698 85.16126036 443.89157171 83.03515625 446.05078125 C 81.77445312 447.32308594 81.77445312 447.32308594 80.48828125 448.62109375 C 79.6375 449.48476563 78.78671875 450.3484375 77.91015625 451.23828125 C 72.66786083 456.56000539 67.41821502 461.76155466 61.74609375 466.625 C 58.82614827 469.19082443 56.12534965 471.95935879 53.41015625 474.73828125 C 49.33951074 478.86042429 45.22014297 482.81551941 40.80078125 486.56640625 C 37.76776517 489.24849485 34.97507191 492.16561374 32.1328125 495.046875 C 29.4894565 497.65306607 26.71864589 500.06338962 23.88671875 502.4609375 C 21.00364013 505.05342915 18.4373707 507.93178242 15.8671875 510.83203125 C 13.91015625 512.23828125 13.91015625 512.23828125 11.53515625 512.30859375 C 7.93903182 510.84231682 5.69191324 508.40178308 3.09765625 505.61328125 C 2.03451164 504.50852756 0.96940953 503.40565426 -0.09765625 502.3046875 C -0.61102539 501.77246582 -1.12439453 501.24024414 -1.65332031 500.69189453 C -3.44687925 498.87699821 -5.33305014 497.20225956 -7.27734375 495.55078125 C -11.01703588 492.36855876 -14.42810167 488.91591041 -17.875 485.421875 C -19.86643836 483.45853454 -21.90286953 481.61748456 -24.02734375 479.80078125 C -27.20020295 477.08208877 -30.15322757 474.2107645 -33.08984375 471.23828125 C -35.90440949 468.38965118 -38.71719627 465.63298813 -41.77734375 463.05078125 C -46.61065198 458.92622698 -51.01440236 454.36483468 -55.4597168 449.83129883 C -58.35441414 446.89684861 -61.26054269 444.05752096 -64.41772461 441.40600586 C -71.13794725 435.55489306 -77.33311674 429.13850644 -83.625 422.8359375 C -85.03154679 421.43006559 -86.4382419 420.02434205 -87.84507751 418.61875916 C -90.78254139 415.68276357 -93.71820457 412.74498256 -96.65258789 409.8059082 C -100.39686435 406.05593502 -104.14561309 402.31046994 -107.89573002 398.56633854 C -110.79817815 395.66751953 -113.6982211 392.7663037 -116.59756279 389.86437798 C -117.9782027 388.4830753 -119.35957387 387.1025031 -120.74171638 385.72270393 C -134.05391351 372.42813206 -134.05391351 372.42813206 -140.08984375 365.23828125 C -141.037398 364.16534153 -141.98751477 363.09465333 -142.94140625 362.02734375 C -155.91685894 347.3076423 -166.74627601 331.4821625 -176.08984375 314.23828125 C -176.45948242 313.56087891 -176.82912109 312.88347656 -177.20996094 312.18554688 C -190.11504064 288.27844071 -197.92998008 262.16636246 -201.08984375 235.23828125 C -201.22132813 234.17867187 -201.3528125 233.1190625 -201.48828125 232.02734375 C -206.51958177 183.48209282 -192.91117705 132.1868624 -165.08984375 92.23828125 C -164.63673828 91.58601563 -164.18363281 90.93375 -163.71679688 90.26171875 C -156.76079736 80.37637514 -149.01042756 71.44161041 -140.58789062 62.78320312 C -139.3497931 61.50636461 -138.13118756 60.21065699 -136.91796875 58.91015625 C -130.93268519 52.61793508 -124.00345663 47.45578889 -117.08984375 42.23828125 C -116.52491211 41.80725098 -115.95998047 41.3762207 -115.37792969 40.93212891 C -86.78826876 19.23506595 -52.49879837 6.21863218 -17.08984375 1.23828125 C -15.86080322 1.06393555 -14.6317627 0.88958984 -13.36547852 0.70996094 C -8.90791644 0.16213657 -4.48750121 0.04258279 0 0 Z M -97.6953125 91.99609375 C -99.69356061 93.86721025 -101.72493539 95.62821231 -103.83984375 97.36328125 C -132.39775828 121.81262789 -147.67560457 162.20332252 -151.77734375 198.61328125 C -154.98644198 244.08688601 -140.80898986 287.08152032 -111.18920898 321.62158203 C -83.44104598 353.37408278 -43.32690723 374.09626097 -1.08984375 377.23828125 C 48.53171547 379.43667742 91.06586509 363.2000924 127.5703125 329.8046875 C 157.97834023 300.45684457 175.34229546 258.25647841 176.14697266 216.19262695 C 176.36810964 176.07264449 162.58594411 136.47084083 135.91015625 106.23828125 C 134.67072266 104.81708984 134.67072266 104.81708984 133.40625 103.3671875 C 128.54871162 97.90152982 123.60659477 92.82321957 117.91015625 88.23828125 C 116.94335938 87.45710938 115.9765625 86.6759375 114.98046875 85.87109375 C 52.84663613 36.47317951 -39.03316272 36.85539073 -97.6953125 91.99609375 Z" stroke-linecap="round"/>
      </g>
      <g transform="matrix(1 0 0 1 -0.12 -102.36)">
        <path style="stroke: none; stroke-width: 1; stroke-dasharray: none; stroke-linecap: butt; stroke-dashoffset: 0; stroke-linejoin: miter; stroke-miterlimit: 4; fill: rgb(164,180,157); fill-rule: nonzero; opacity: 1;" vector-effect="non-scaling-stroke" transform=" translate(94.36, -37.32)" d="M 0 0 C 24.90357496 24.12117654 40.37091299 57.29710103 40.96484375 92.20703125 C 40.98004912 93.82288762 40.99173656 95.43878072 41 97.0546875 C 41.00713013 98.20868042 41.00713013 98.20868042 41.0144043 99.38598633 C 41.00193646 103.63567238 40.71477339 107.6191503 39.875 111.8046875 C 33.2676801 107.70014029 27.48082393 103.01936503 21.671875 97.87890625 C 18.77597691 95.73124998 17.4041024 95.11165263 13.875 94.8046875 C 11.64967565 95.64641916 11.64967565 95.64641916 9.58203125 97.12109375 C 8.79127197 97.63591309 8.0005127 98.15073242 7.18579102 98.68115234 C 5.94913696 99.51573975 5.94913696 99.51573975 4.6875 100.3671875 C 2.984532 101.47550169 1.28140847 102.58357694 -0.421875 103.69140625 C -1.99071721 104.72745173 -3.5585385 105.76504599 -5.125 106.8046875 C -7.09463525 108.11084233 -9.07120009 109.40680567 -11.0625 110.6796875 C -12.12791016 111.38738281 -12.12791016 111.38738281 -13.21484375 112.109375 C -15.125 112.8046875 -15.125 112.8046875 -17.0859375 112.24609375 C -19.71151521 110.39008192 -21.67258271 108.26899483 -23.8125 105.8671875 C -24.24747803 105.38064697 -24.68245605 104.89410645 -25.13061523 104.39282227 C -28.8524459 100.19572064 -32.38732454 95.85312547 -35.91015625 91.48828125 C -38.08132827 88.85760193 -40.32741357 86.32526326 -42.625 83.8046875 C -45.72055196 80.40870068 -48.67651207 76.94297219 -51.5625 73.3671875 C -54.63836588 69.56381247 -57.81253166 65.90386098 -61.125 62.3046875 C -65.23878909 57.8348363 -69.09587297 53.21423857 -72.91015625 48.48828125 C -75.77749034 45.01410397 -78.80583831 41.70330932 -81.83984375 38.375 C -85.75164212 33.97506269 -89.43578806 29.39221819 -93.125 24.8046875 C -96.87388398 26.05431549 -97.77119319 27.58365736 -100.1875 30.6796875 C -103.38274361 34.68798337 -106.64429973 38.53619142 -110.125 42.3046875 C -114.23878909 46.7745387 -118.09587297 51.39513643 -121.91015625 56.12109375 C -124.78980887 59.61019666 -127.83193876 62.93465671 -130.87890625 66.27734375 C -133.18687598 68.87431143 -135.38055863 71.53872763 -137.5625 74.2421875 C -141.42325137 79.0160905 -145.49937075 83.53857178 -149.65625 88.0546875 C -152.84146027 91.60276983 -155.81574611 95.3014443 -158.80859375 99.01171875 C -162.74730778 103.76075843 -166.93236675 108.27944452 -171.125 112.8046875 C -176.63355964 111.31894034 -180.81921337 108.62798139 -185.5 105.4921875 C -187.6600366 104.06446547 -189.82112638 102.63860441 -191.98730469 101.22021484 C -193.42816481 100.266114 -194.85586955 99.29188121 -196.27050781 98.29931641 C -200.18967737 95.57587636 -200.18967737 95.57587636 -204.765625 94.69921875 C -207.94564791 96.18919637 -210.24584945 98.16559793 -212.875 100.4921875 C -217.71483637 104.69504478 -222.67010295 108.41603933 -228.125 111.8046875 C -232.94810208 86.95015338 -226.46100237 59.00319828 -215.125 36.8046875 C -214.32255859 35.18626953 -214.32255859 35.18626953 -213.50390625 33.53515625 C -207.37437564 21.60168211 -199.29408171 11.536185 -190.125 1.8046875 C -189.57585937 1.20269531 -189.02671875 0.60070312 -188.4609375 -0.01953125 C -166.61289072 -23.10527526 -133.11121689 -36.31054127 -101.7734375 -38.12890625 C -63.04014999 -38.83390185 -28.27123435 -26.8695084 0 0 Z" stroke-linecap="round"/>
      </g>
      <g transform="matrix(1 0 0 1 0.12 10.34)">
        <path style="stroke: none; stroke-width: 1; stroke-dasharray: none; stroke-linecap: butt; stroke-dashoffset: 0; stroke-linejoin: miter; stroke-miterlimit: 4; fill: rgb(164,180,157); fill-rule: nonzero; opacity: 1;" vector-effect="non-scaling-stroke" transform=" translate(-1, -82.22)" d="M 0 0 C 4.28283602 1.57576042 6.68508441 4.8382044 9.5 8.25 C 10.57273975 9.5261904 11.64566146 10.80222786 12.71875 12.078125 C 13.26402344 12.73103516 13.80929687 13.38394531 14.37109375 14.05664062 C 16.88837289 17.05986933 19.44477102 20.02906771 22 23 C 23.00153037 24.167773 24.00283187 25.33574233 25.00390625 26.50390625 C 25.49906738 27.08156738 25.99422852 27.65922852 26.50439453 28.25439453 C 27.99193779 29.99059014 29.47851508 31.72760829 30.96484375 33.46484375 C 36.66422738 40.12412358 42.38664296 46.76256861 48.13330078 53.38110352 C 51.87806578 57.69684692 55.60016127 62.03135129 59.3125 66.375 C 63.81305389 71.63938237 68.3680735 76.85038759 73 82 C 81.3776944 77.71163375 89.21619983 72.73676182 97.08203125 67.5859375 C 97.75057129 67.15120117 98.41911133 66.71646484 99.10791016 66.26855469 C 100.84507853 65.10386735 102.52579687 63.8561181 104.19921875 62.6015625 C 107 61 107 61 109.42578125 61.21606445 C 112.21536908 62.06558708 113.76322427 63.07814716 115.98828125 64.94140625 C 116.69404297 65.52470703 117.39980469 66.10800781 118.12695312 66.70898438 C 118.84818359 67.32064453 119.56941406 67.93230469 120.3125 68.5625 C 121.42334961 69.48579102 121.42334961 69.48579102 122.55664062 70.42773438 C 124.37815502 71.94370442 126.19209988 73.46784356 128 75 C 118.01943269 104.28970508 97.5204537 129.10247254 71 145 C 70.37915527 145.37447266 69.75831055 145.74894531 69.11865234 146.13476562 C 39.07285693 163.92680646 1.69535443 168.82283951 -32.10693359 160.47998047 C -67.52581073 151.09032789 -97.56383545 128.58125614 -116.1875 96.98535156 C -120.25581273 89.91734542 -123.78627566 82.88639296 -126 75 C -124.10468802 73.41603911 -122.2087674 71.8328164 -120.3125 70.25 C -119.78205078 69.8065625 -119.25160156 69.363125 -118.70507812 68.90625 C -117.6467205 68.02320314 -116.58438272 67.14490417 -115.51806641 66.27148438 C -114.11324662 65.09485179 -112.76260805 63.85433605 -111.41796875 62.609375 C -109 61 -109 61 -106.71948242 61.18334961 C -103.44702733 62.16605562 -100.96468813 63.63940365 -98.0703125 65.45703125 C -97.24018143 65.97338387 -97.24018143 65.97338387 -96.39328003 66.50016785 C -94.63265289 67.59721548 -92.8787046 68.70442708 -91.125 69.8125 C -89.3805092 70.90552421 -87.63468828 71.99639617 -85.88861084 73.08688354 C -84.23654196 74.118779 -82.58554213 75.15238538 -80.93457031 76.18603516 C -77.66433055 78.20748952 -74.36054976 80.13357222 -71 82 C -64.46963066 75.04974228 -58.12010661 68.05314175 -52.14453125 60.61328125 C -50.00125044 58.00152377 -47.7761967 55.49634698 -45.5 53 C -42.40444804 49.60401318 -39.44848793 46.13828469 -36.5625 42.5625 C -32.70291397 37.79003797 -28.62800009 33.26890891 -24.47265625 28.75390625 C -21.25968891 25.17548291 -18.25359202 21.44893319 -15.234375 17.70703125 C -12.28197204 14.13008151 -9.17905438 10.70505377 -6.04296875 7.2890625 C -3.93468885 4.92682154 -1.95661814 2.4886424 0 0 Z" stroke-linecap="round"/>
      </g>
    </g>
  </g>
</svg>